<svg id="visual" viewBox="0 0 900 600" width="900" height="600" xmlns="http://www.w3.org/2000/svg" xmlns:xlink="http://www.w3.org/1999/xlink" version="1.1"><rect x="0" y="0" width="900" height="600" fill="#003c3e"></rect><path d="M0 420L21.5 421.3C43 422.7 86 425.3 128.8 420.5C171.7 415.7 214.3 403.3 257.2 394C300 384.7 343 378.3 385.8 371.7C428.7 365 471.3 358 514.2 359.3C557 360.7 600 370.3 642.8 375.8C685.7 381.3 728.3 382.7 771.2 391C814 399.3 857 414.7 878.5 422.3L900 430L900 601L878.5 601C857 601 814 601 771.2 601C728.3 601 685.7 601 642.8 601C600 601 557 601 514.2 601C471.3 601 428.7 601 385.8 601C343 601 300 601 257.2 601C214.3 601 171.7 601 128.8 601C86 601 43 601 21.5 601L0 601Z" fill="#0f4e51"></path><path d="M0 437L21.5 444C43 451 86 465 128.8 461.7C171.7 458.3 214.3 437.7 257.2 435.8C300 434 343 451 385.8 457.3C428.7 463.7 471.3 459.3 514.2 454C557 448.7 600 442.3 642.8 441.3C685.7 440.3 728.3 444.7 771.2 441.8C814 439 857 429 878.5 424L900 419L900 601L878.5 601C857 601 814 601 771.2 601C728.3 601 685.7 601 642.8 601C600 601 557 601 514.2 601C471.3 601 428.7 601 385.8 601C343 601 300 601 257.2 601C214.3 601 171.7 601 128.8 601C86 601 43 601 21.5 601L0 601Z" fill="#007063"></path><path d="M0 486L21.5 478.2C43 470.3 86 454.7 128.8 453.5C171.7 452.3 214.3 465.7 257.2 469.5C300 473.3 343 467.7 385.8 464.3C428.7 461 471.3 460 514.2 466.5C557 473 600 487 642.8 492.3C685.7 497.7 728.3 494.3 771.2 492.2C814 490 857 489 878.5 488.5L900 488L900 601L878.5 601C857 601 814 601 771.2 601C728.3 601 685.7 601 642.8 601C600 601 557 601 514.2 601C471.3 601 428.7 601 385.8 601C343 601 300 601 257.2 601C214.3 601 171.7 601 128.8 601C86 601 43 601 21.5 601L0 601Z" fill="#0f9264"></path><path d="M0 502L21.5 501.2C43 500.3 86 498.7 128.8 495.3C171.7 492 214.3 487 257.2 485.2C300 483.3 343 484.7 385.8 484.7C428.7 484.7 471.3 483.3 514.2 485.2C557 487 600 492 642.8 499.2C685.7 506.3 728.3 515.7 771.2 523C814 530.3 857 535.7 878.5 538.3L900 541L900 601L878.5 601C857 601 814 601 771.2 601C728.3 601 685.7 601 642.8 601C600 601 557 601 514.2 601C471.3 601 428.7 601 385.8 601C343 601 300 601 257.2 601C214.3 601 171.7 601 128.8 601C86 601 43 601 21.5 601L0 601Z" fill="#59b255"></path><path d="M0 566L21.5 560C43 554 86 542 128.8 542.3C171.7 542.7 214.3 555.3 257.2 556.8C300 558.3 343 548.7 385.8 548C428.7 547.3 471.3 555.7 514.2 555C557 554.3 600 544.7 642.8 540.2C685.7 535.7 728.3 536.3 771.2 535.5C814 534.7 857 532.3 878.5 531.2L900 530L900 601L878.5 601C857 601 814 601 771.2 601C728.3 601 685.7 601 642.8 601C600 601 557 601 514.2 601C471.3 601 428.7 601 385.8 601C343 601 300 601 257.2 601C214.3 601 171.7 601 128.8 601C86 601 43 601 21.5 601L0 601Z" fill="#a2ce39"></path></svg>